Inverse Dynamics Generalized Forces
version=1
nRows=6
nColumns=34
inDegrees=no
endheader 
time	pelvis_tilt_moment	pelvis_list_moment	pelvis_rotation_moment	pelvis_tx_force	pelvis_ty_force	pelvis_tz_force	hip_flexion_l_moment	hip_adduction_l_moment	hip_rotation_l_moment	hip_flexion_r_moment	hip_adduction_r_moment	hip_rotation_r_moment	knee_angle_l_moment	knee_angle_r_moment	ankle_angle_l_moment	ankle_angle_r_moment	subtalar_angle_l_moment	subtalar_angle_r_moment	mtp_angle_l_moment	mtp_angle_r_moment	lumbar_extension_moment	lumbar_bending_moment	lumbar_rotation_moment	arm_flex_l_moment	arm_add_l_moment	arm_rot_l_moment	arm_flex_r_moment	arm_add_r_moment	arm_rot_r_moment	elbow_flex_l_moment	elbow_flex_r_moment	pro_sup_l_moment	pro_sup_r_moment	
          0.38156604	         -0.00000000	          0.00000147	         -0.00000004	          0.00000163	          0.00001645	         -0.00000219	         -4.71885083	         -1.05859107	          0.56051003	         15.90927442	        -40.67177040	         -0.43802475	          8.29894860	         -6.77484359	          0.88206632	        -20.31628025	         -0.28768442	          7.03448921	         -0.04642088	          2.88029560	         -1.00000429	         -0.89988341	         -3.51109652	         -0.26912691	         -1.02036850	         -0.09598156	         -0.94769649	         -0.04033085	          0.08457209	          0.13295343	          0.17076455	         -0.01134363	          0.00273983	
          0.40171698	         -0.00000010	          0.00000191	         -0.00000005	          0.00000227	          0.00002004	         -0.00000278	         -5.62055005	         -0.28242815	          0.55862947	         18.83573136	        -41.48913498	         -1.28428897	          9.31103609	         -6.66547189	          0.91369020	        -24.20733472	         -0.29544805	          7.68612897	         -0.04510240	          3.31100470	         -1.02911673	         -4.97305699	         -3.27090324	          0.21022777	         -0.91970898	         -0.08050932	         -1.51100167	         -0.42582965	          0.07231428	          0.33466464	         -0.04353237	         -0.01436559	          0.00542781	
          0.42186792	         -0.00000040	          0.00000238	         -0.00000009	          0.00000279	          0.00002312	         -0.00000337	         -8.00978665	          1.64736180	          0.38161033	         23.82215192	        -39.35572365	         -1.71421309	         10.68046990	         -6.77227492	          0.85263446	        -29.32689713	         -0.25754759	          8.96696049	         -0.03969846	          3.89192380	         -1.46081865	        -10.35572922	         -2.97090582	          0.87667459	         -0.86011426	         -0.06062025	         -1.60531883	         -0.83309468	          0.02600211	          0.60811630	         -0.11749805	         -0.01728838	          0.00350597	
          0.44201887	         -0.00000097	          0.00000267	         -0.00000014	          0.00000297	          0.00002531	         -0.00000375	        -11.73595655	          3.96244358	          0.23043880	         29.68987013	        -35.27445272	         -1.45881828	         12.29764387	         -6.20499240	          0.69191578	        -35.73813543	         -0.19138001	         10.79228187	         -0.02945820	          4.68321751	         -1.83888036	        -15.62136427	         -2.94025670	          1.78573525	         -0.94334857	         -0.04449033	         -1.32377708	         -1.15533077	         -0.03962763	          0.95944337	         -0.07201427	         -0.02103339	         -0.00135026	
          0.46216981	         -0.00000166	          0.00000287	         -0.00000021	          0.00000283	          0.00002598	         -0.00000397	        -16.18817271	          5.92342951	          0.18342836	         35.10765696	        -30.79525186	         -0.61936845	         13.93979306	         -4.30677015	          0.45818557	        -43.34856676	         -0.11899170	         12.85390156	         -0.01585575	          5.74151937	         -1.91122880	        -19.40510125	         -3.41441823	          2.89339729	         -1.25430908	         -0.03963251	         -0.88421232	         -1.36410336	         -0.10793825	          1.36781457	          0.03004299	         -0.02660522	         -0.00684016	
          0.48232075	         -0.00000219	          0.00000286	         -0.00000027	          0.00000253	          0.00002503	         -0.00000391	        -20.28761841	          6.68787994	          0.23822810	         39.15459366	        -28.00928708	          0.10617361	         15.22852925	         -1.09915454	          0.21369044	        -51.76015285	         -0.06713846	         14.44155816	         -0.00245254	          7.08594197	         -1.92175221	        -20.83720270	         -4.39122384	          4.02078371	         -1.79430547	         -0.04882552	         -0.48897579	         -1.47723742	         -0.16333806	          1.77424618	          0.12990933	         -0.03414738	         -0.01107830	
